<?xml version="1.0" standalone="no"?>
<!DOCTYPE svg PUBLIC "-//W3C//DTD SVG 20010904//EN"
 "http://www.w3.org/TR/2001/REC-SVG-20010904/DTD/svg10.dtd">
<svg version="1.0" xmlns="http://www.w3.org/2000/svg"
 width="512.000000pt" height="512.000000pt" viewBox="0 0 512.000000 512.000000"
 preserveAspectRatio="xMidYMid meet">

<g transform="translate(0.000000,512.000000) scale(0.100000,-0.100000)"
fill="#000000" stroke="none">
<path d="M4260 4981 c-5 -11 -10 -45 -10 -75 0 -60 -6 -55 75 -71 11 -3 33
-16 50 -30 31 -28 43 -28 107 0 64 26 60 66 -13 129 -71 61 -187 87 -209 47z"/>
<path d="M3960 4946 c-112 -40 -148 -57 -154 -73 -10 -25 40 -123 62 -123 17
0 92 25 184 61 32 13 37 32 23 88 -16 67 -36 75 -115 47z"/>
<path d="M3789 4662 c8 -15 1 -27 -39 -67 l-49 -48 88 -96 c150 -164 167 -189
190 -288 27 -117 50 -263 41 -263 -4 0 -52 21 -106 46 -201 95 -603 209 -632
180 -12 -11 -7 -46 26 -217 23 -112 49 -269 58 -349 10 -80 21 -149 25 -153 3
-5 31 7 60 26 78 50 186 102 248 121 211 62 321 -63 247 -280 -60 -177 -170
-335 -477 -685 l-56 -64 23 -185 c13 -102 23 -191 24 -197 0 -7 7 -13 15 -13
9 0 34 -9 56 -21 43 -21 78 -80 79 -128 0 -43 -38 -107 -75 -127 -44 -24 -41
-42 10 -60 118 -40 140 -185 38 -259 l-41 -30 5 -88 6 -87 -139 -140 c-146
-148 -171 -162 -193 -114 -6 14 -93 215 -192 447 -100 232 -185 425 -188 430
-4 4 -57 -36 -117 -89 -183 -163 -471 -400 -631 -521 -130 -97 -153 -119 -153
-141 0 -15 9 -93 21 -174 18 -124 19 -149 8 -165 -22 -29 -138 -133 -149 -133
-9 0 -183 257 -193 284 -2 5 -37 -4 -78 -21 -93 -39 -129 -46 -161 -34 -49 18
-45 92 12 202 l29 56 -131 84 c-144 92 -160 101 -139 75 10 -12 11 -20 4 -27
-14 -14 -77 146 -128 321 -20 69 -40 133 -43 143 -6 14 -26 -2 -111 -87 l-105
-105 84 -85 c46 -47 118 -114 161 -148 69 -55 75 -64 61 -75 -15 -12 -13 -13
13 -7 29 5 29 5 11 -10 -11 -9 -35 -16 -54 -16 -19 0 -31 -4 -27 -10 3 -5 0
-10 -7 -10 -18 0 -162 116 -256 204 l-73 69 -59 -58 -60 -59 42 -75 c128 -235
337 -487 550 -664 400 -332 896 -529 1401 -556 703 -37 1357 210 1847 700 91
91 274 308 266 316 -1 2 -16 -3 -32 -12 -68 -35 -179 -2 -219 66 -19 32 -20
56 -25 419 -5 422 -5 420 -69 492 -44 50 -88 68 -205 84 -164 21 -243 59 -338
162 -62 69 -103 156 -119 252 l-12 72 144 144 c79 79 151 144 159 144 8 0 29
12 45 26 17 14 46 38 65 53 19 14 37 29 40 32 3 3 27 18 53 32 69 39 97 58 97
68 0 4 -25 35 -56 68 -54 58 -55 60 -31 66 13 4 163 5 334 3 l310 -3 69 -35
c48 -25 81 -51 111 -88 51 -63 51 -59 -5 108 -190 569 -578 1038 -1108 1339
-99 56 -109 60 -95 33z m-2599 -3346 c0 -11 -19 -15 -25 -6 -3 5 1 10 9 10 9
0 16 -2 16 -4z m-49 -46 c-13 -11 -30 -20 -38 -20 -11 0 -8 6 8 20 13 10 31
19 39 19 10 0 8 -6 -9 -19z m-84 -26 c-3 -3 -12 -4 -19 -1 -8 3 -5 6 6 6 11 1
17 -2 13 -5z m36 -21 c-7 -2 -19 -2 -25 0 -7 3 -2 5 12 5 14 0 19 -2 13 -5z"/>
<path d="M4419 4618 c-15 -12 -60 -158 -63 -203 -1 -23 71 -65 112 -65 27 0
40 27 72 144 22 80 20 112 -8 120 -51 14 -98 16 -113 4z"/>
<path d="M3503 4348 l-102 -103 137 -38 c123 -34 267 -84 376 -132 l38 -16
-23 33 c-58 84 -131 171 -218 261 -52 53 -97 97 -101 97 -3 0 -51 -46 -107
-102z"/>
<path d="M1685 4310 c-99 -99 -101 -114 -19 -112 55 0 91 23 117 73 18 34 18
102 0 120 -5 5 -48 -31 -98 -81z"/>
<path d="M2781 3626 l-374 -374 279 -1 c153 0 329 -3 389 -7 l110 -6 48 38 49
38 -7 60 c-22 196 -101 626 -114 626 -3 0 -174 -168 -380 -374z"/>
<path d="M3349 3268 c-48 -30 -159 -132 -159 -145 0 -6 16 -14 36 -17 34 -7
39 -4 109 62 87 83 114 92 182 62 61 -27 44 -10 -24 24 -75 38 -102 41 -144
14z"/>
<path d="M3548 3185 c-3 -3 -14 -7 -24 -9 -11 -2 -44 -14 -74 -26 -30 -12 -63
-24 -73 -25 -32 -7 -87 -29 -87 -35 0 -4 11 -12 25 -18 76 -35 173 -165 190
-255 4 -20 12 -37 19 -37 6 0 36 28 66 62 112 127 118 144 76 235 -35 74 -66
113 -91 113 -12 0 -24 -2 -27 -5z"/>
<path d="M2197 3142 c9 -23 22 -42 30 -42 22 0 15 25 -17 55 l-30 29 17 -42z"/>
<path d="M2524 3098 c9 -34 14 -38 50 -43 23 -2 111 -13 196 -24 l155 -18 64
56 65 56 -105 7 c-57 5 -178 7 -269 5 l-166 -2 10 -37z"/>
<path d="M1594 2695 l129 -126 -248 -249 c-137 -137 -247 -251 -245 -253 17
-15 498 -99 645 -113 l71 -6 26 34 27 35 -9 144 c-4 79 -6 146 -4 148 3 3 29
-20 59 -49 46 -45 55 -60 55 -90 l1 -35 27 31 c15 17 75 85 134 151 l106 120
-434 187 c-239 103 -443 189 -452 193 -9 3 41 -52 112 -122z"/>
<path d="M1109 1954 c-15 -14 -15 -23 -2 -82 21 -104 43 -189 70 -281 l25 -83
38 37 38 37 151 -21 c84 -12 162 -21 176 -21 19 0 46 30 139 153 l115 152 -62
8 c-233 28 -608 92 -657 111 -9 4 -23 -1 -31 -10z"/>
</g>
</svg>
